<?xml version="1.0" standalone="no"?>
<!DOCTYPE svg PUBLIC "-//W3C//DTD SVG 20010904//EN"
 "http://www.w3.org/TR/2001/REC-SVG-20010904/DTD/svg10.dtd">
<svg version="1.0" xmlns="http://www.w3.org/2000/svg"
 width="1336.000000pt" height="447.000000pt" viewBox="0 0 1336.000000 447.000000"
 preserveAspectRatio="xMidYMid meet">
<metadata>
Created by potrace 1.16, written by Peter Selinger 2001-2019
</metadata>
<g transform="translate(0.000000,447.000000) scale(0.100000,-0.100000)"
fill="#000000" stroke="none">
<path d="M857 3493 c-9 -176 -9 -2492 0 -2601 l6 -82 4616 2 4616 3 58 95 57
95 -3410 3 -3410 2 0 1215 0 1215 3640 0 3641 0 39 86 c22 47 40 90 40 95 0 5
-2019 9 -4943 9 l-4944 0 -6 -137z m1653 -273 c162 -39 301 -77 309 -85 11
-11 -27 -62 -253 -335 -148 -178 -266 -329 -264 -338 2 -12 62 -26 268 -64
146 -27 269 -53 274 -58 4 -5 5 -14 1 -20 -4 -6 -358 -292 -787 -635 -488
-391 -785 -622 -794 -618 -8 3 -14 9 -14 14 0 5 149 210 331 455 183 247 329
452 327 461 -2 13 -47 26 -198 57 -148 31 -196 45 -198 57 -2 13 636 1134 670
1176 5 6 15 10 21 8 7 -2 145 -36 307 -75z"/>
<path d="M11780 3540 c-33 -49 -60 -92 -60 -95 0 -3 162 -5 360 -5 l360 0 0
-1215 0 -1215 -943 0 -942 0 -100 -100 -100 -100 1138 0 1137 0 0 1410 0 1410
-395 0 -394 0 -61 -90z"/>
<path d="M4574 2794 c-88 -31 -174 -140 -174 -221 0 -31 1 -32 53 -38 79 -10
99 -5 108 29 24 91 151 125 228 61 53 -45 48 -141 -10 -170 -17 -9 -56 -15
-99 -15 l-70 0 0 -70 0 -70 63 0 c118 0 177 -30 198 -101 28 -91 -56 -179
-170 -179 -93 0 -172 53 -185 124 -6 33 -10 36 -40 36 -18 0 -54 -3 -80 -6
l-47 -7 6 -41 c18 -105 73 -178 174 -228 40 -20 61 -23 166 -22 101 0 127 3
167 21 67 31 134 96 155 151 40 105 7 246 -73 307 l-35 27 19 22 c60 65 76
184 35 262 -30 56 -92 107 -154 127 -63 21 -179 21 -235 1z"/>
<path d="M10577 2792 c-93 -33 -161 -113 -173 -204 l-6 -45 47 -6 c26 -4 62
-7 80 -7 29 0 33 4 39 34 12 64 86 105 166 91 70 -12 109 -68 96 -139 -10 -55
-37 -70 -130 -76 l-81 -5 -3 -67 -3 -68 68 0 c88 0 133 -13 167 -49 56 -59 41
-158 -33 -203 -52 -33 -170 -33 -224 0 -40 26 -57 50 -67 97 -7 35 -21 39
-105 30 l-62 -6 9 -57 c24 -158 162 -249 362 -240 103 4 176 32 234 88 107
103 108 277 3 379 l-48 47 27 32 c47 56 61 136 39 216 -16 59 -102 140 -169
160 -69 21 -172 20 -233 -2z"/>
<path d="M6996 2761 c-10 -65 -40 -81 -152 -81 l-94 0 0 -65 0 -65 120 0 120
0 0 -335 0 -335 85 0 85 0 0 460 0 460 -79 0 -78 0 -7 -39z"/>
<path d="M7784 2568 c-177 -290 -176 -289 -181 -368 -7 -89 22 -164 87 -229
76 -76 126 -96 245 -96 118 0 167 19 239 91 69 69 91 123 91 224 0 76 -3 91
-30 139 -50 90 -132 145 -245 164 l-67 12 93 143 c52 79 94 145 94 148 0 2
-42 4 -93 4 l-92 0 -141 -232z m241 -241 c83 -46 108 -157 51 -232 -88 -115
-269 -83 -305 53 -38 141 121 254 254 179z"/>
</g>
</svg>
